# xmcd
#
# Track frame offsets: 
#        150
#        16760
#        29435
#        50660
#        69302
#        93717
#        111597
#        123117
#        162957
#        183607
#        197145
#
# Disc length: 2898 seconds
#
# Revision: 1
# Processed by: cddbd v1.5.2PL0 Copyright (c) Steve Scherf et al.
# Submitted via: ExactAudioCopy v1.0b1
#
DISCID=980b500b
DTITLE=Stevie Ray Vaughan - Real Deal Sampler
DYEAR=1999
DGENRE=Blues
TTITLE0=Pride And Joy
TTITLE1=Mary Had A Little Lamb
TTITLE2=Couldn't Stand The Weather
TTITLE3=Give Me Back My Wig
TTITLE4=Say What
TTITLE5=Change It
TTITLE6=The House Is Rockin (Live)
TTITLE7=Riviera Paradise
TTITLE8=Superstition (Live)
TTITLE9=Pipeline
TTITLE10=Shake 'N Bake
EXTD=
EXTT0=
EXTT1=
EXTT2=
EXTT3=
EXTT4=
EXTT5=
EXTT6=
EXTT7=
EXTT8=
EXTT9=
EXTT10=
PLAYORDER=
